<svg width="60" height="60" viewBox="0 0 60 60" fill="none" xmlns="http://www.w3.org/2000/svg">
<rect opacity="0.101652" width="60" height="60" rx="6" fill="#F9CE23"/>
<path d="M37.6576 35.0999C37.2251 36.0574 37.0188 36.4849 36.4613 37.3312C35.6851 38.5124 34.5913 39.9849 33.2351 39.9974C32.0301 40.0087 31.7201 39.2137 30.0851 39.2224C28.4501 39.2312 28.1076 40.0112 26.9026 39.9999C25.5463 39.9874 24.5101 38.6587 23.7326 37.4762C21.5626 34.1712 21.3351 30.2937 22.6738 28.2324C23.6251 26.7662 25.1263 25.9099 26.5388 25.9099C27.9763 25.9099 28.8788 26.6974 30.0676 26.6974C31.2201 26.6974 31.9226 25.9087 33.5851 25.9087C34.8413 25.9087 36.1726 26.5924 37.1201 27.7737C34.0138 29.4774 34.5188 33.9137 37.6576 35.0999Z" fill="#FDCC0C"/>
<path d="M22.8429 35.0999C23.2754 36.0574 23.4817 36.4849 24.0392 37.3312C24.8154 38.5124 25.9092 39.9849 27.2654 39.9974C28.4704 40.0087 28.7804 39.2137 30.4154 39.2224C32.0504 39.2312 32.3929 40.0112 33.5979 39.9999C34.9542 39.9874 35.9904 38.6587 36.7679 37.4762C38.9379 34.1712 39.1654 30.2937 37.8267 28.2324C36.8754 26.7662 35.3742 25.9099 33.9617 25.9099C32.5242 25.9099 31.6217 26.6974 30.4329 26.6974C29.2804 26.6974 28.5779 25.9087 26.9154 25.9087C25.6592 25.9087 24.3279 26.5924 23.3804 27.7737C26.4867 29.4774 25.9817 33.9137 22.8429 35.0999Z" fill="#FDCC0C"/>
<path d="M33.005 23.3737C33.6875 22.4987 34.205 21.2625 34.0163 20C32.9025 20.0763 31.6 20.785 30.8388 21.7088C30.1488 22.5475 29.5788 23.7912 29.8 25C31.0163 25.0375 32.2738 24.3112 33.005 23.3737Z" fill="#FDCC0C"/>
</svg>
